{
	"asset":
	{
		"version": "2.0",
		"generator": "Unreal Engine 5.0.0 glTF Exporter 1.3.0"
	},
	"scene": 0,
	"accessors": [
		{
			"bufferView": 0,
			"count": 69006,
			"type": "SCALAR",
			"componentType": 5125
		},
		{
			"bufferView": 1,
			"count": 68538,
			"type": "VEC3",
			"componentType": 5126,
			"min": [ -32.9894714, -0.796936035, -34.2296295 ],
			"max": [ 36.8377953, 4.68956614, 33.5535545 ]
		},
		{
			"bufferView": 2,
			"count": 68538,
			"type": "VEC3",
			"componentType": 5126
		},
		{
			"bufferView": 3,
			"count": 68538,
			"type": "VEC4",
			"componentType": 5126
		},
		{
			"bufferView": 4,
			"count": 68538,
			"type": "VEC2",
			"componentType": 5126
		},
		{
			"bufferView": 5,
			"count": 68538,
			"type": "VEC2",
			"componentType": 5126
		},
		{
			"bufferView": 6,
			"count": 254397,
			"type": "SCALAR",
			"componentType": 5125
		},
		{
			"bufferView": 7,
			"count": 254281,
			"type": "VEC3",
			"componentType": 5126,
			"min": [ -31.6437302, -0.858688056, -33.9482803 ],
			"max": [ 35.9298248, 4.7984643, 33.4353065 ]
		},
		{
			"bufferView": 8,
			"count": 254281,
			"type": "VEC3",
			"componentType": 5126
		},
		{
			"bufferView": 9,
			"count": 254281,
			"type": "VEC4",
			"componentType": 5126
		},
		{
			"bufferView": 10,
			"count": 254281,
			"type": "VEC2",
			"componentType": 5126
		},
		{
			"bufferView": 11,
			"count": 254281,
			"type": "VEC2",
			"componentType": 5126
		},
		{
			"bufferView": 12,
			"count": 276735,
			"type": "SCALAR",
			"componentType": 5125
		},
		{
			"bufferView": 13,
			"count": 276624,
			"type": "VEC3",
			"componentType": 5126,
			"min": [ -32.6356201, -0.867062151, -34.248745 ],
			"max": [ 36.2775841, 4.7984643, 33.3742714 ]
		},
		{
			"bufferView": 14,
			"count": 276624,
			"type": "VEC3",
			"componentType": 5126
		},
		{
			"bufferView": 15,
			"count": 276624,
			"type": "VEC4",
			"componentType": 5126
		},
		{
			"bufferView": 16,
			"count": 276624,
			"type": "VEC2",
			"componentType": 5126
		},
		{
			"bufferView": 17,
			"count": 276624,
			"type": "VEC2",
			"componentType": 5126
		},
		{
			"bufferView": 18,
			"count": 301314,
			"type": "SCALAR",
			"componentType": 5125
		},
		{
			"bufferView": 19,
			"count": 301196,
			"type": "VEC3",
			"componentType": 5126,
			"min": [ -32.995697, -0.894110143, -34.2487144 ],
			"max": [ 36.4878273, 4.67911816, 33.3704643 ]
		},
		{
			"bufferView": 20,
			"count": 301196,
			"type": "VEC3",
			"componentType": 5126
		},
		{
			"bufferView": 21,
			"count": 301196,
			"type": "VEC4",
			"componentType": 5126
		},
		{
			"bufferView": 22,
			"count": 301196,
			"type": "VEC2",
			"componentType": 5126
		},
		{
			"bufferView": 23,
			"count": 301196,
			"type": "VEC2",
			"componentType": 5126
		},
		{
			"bufferView": 24,
			"count": 352407,
			"type": "SCALAR",
			"componentType": 5125
		},
		{
			"bufferView": 25,
			"count": 352311,
			"type": "VEC3",
			"componentType": 5126,
			"min": [ -32.9935875, -0.858941257, -34.2304916 ],
			"max": [ 36.9235649, 4.67440891, 33.5535545 ]
		},
		{
			"bufferView": 26,
			"count": 352311,
			"type": "VEC3",
			"componentType": 5126
		},
		{
			"bufferView": 27,
			"count": 352311,
			"type": "VEC4",
			"componentType": 5126
		},
		{
			"bufferView": 28,
			"count": 352311,
			"type": "VEC2",
			"componentType": 5126
		},
		{
			"bufferView": 29,
			"count": 352311,
			"type": "VEC2",
			"componentType": 5126
		}
	],
	"buffers": [
		{
			"uri": "hokkeguchi_mafukan.bin",
			"byteLength": 75180636
		}
	],
	"bufferViews": [
		{
			"buffer": 0,
			"byteLength": 276024,
			"target": 34963
		},
		{
			"buffer": 0,
			"byteLength": 822456,
			"byteOffset": 276024,
			"target": 34962
		},
		{
			"buffer": 0,
			"byteLength": 822456,
			"byteOffset": 1098480,
			"target": 34962
		},
		{
			"buffer": 0,
			"byteLength": 1096608,
			"byteOffset": 1920936,
			"target": 34962
		},
		{
			"buffer": 0,
			"byteLength": 548304,
			"byteOffset": 3017544,
			"target": 34962
		},
		{
			"buffer": 0,
			"byteLength": 548304,
			"byteOffset": 3565848,
			"target": 34962
		},
		{
			"buffer": 0,
			"byteLength": 1017588,
			"byteOffset": 4114152,
			"target": 34963
		},
		{
			"buffer": 0,
			"byteLength": 3051372,
			"byteOffset": 5131740,
			"target": 34962
		},
		{
			"buffer": 0,
			"byteLength": 3051372,
			"byteOffset": 8183112,
			"target": 34962
		},
		{
			"buffer": 0,
			"byteLength": 4068496,
			"byteOffset": 11234484,
			"target": 34962
		},
		{
			"buffer": 0,
			"byteLength": 2034248,
			"byteOffset": 15302980,
			"target": 34962
		},
		{
			"buffer": 0,
			"byteLength": 2034248,
			"byteOffset": 17337228,
			"target": 34962
		},
		{
			"buffer": 0,
			"byteLength": 1106940,
			"byteOffset": 19371476,
			"target": 34963
		},
		{
			"buffer": 0,
			"byteLength": 3319488,
			"byteOffset": 20478416,
			"target": 34962
		},
		{
			"buffer": 0,
			"byteLength": 3319488,
			"byteOffset": 23797904,
			"target": 34962
		},
		{
			"buffer": 0,
			"byteLength": 4425984,
			"byteOffset": 27117392,
			"target": 34962
		},
		{
			"buffer": 0,
			"byteLength": 2212992,
			"byteOffset": 31543376,
			"target": 34962
		},
		{
			"buffer": 0,
			"byteLength": 2212992,
			"byteOffset": 33756368,
			"target": 34962
		},
		{
			"buffer": 0,
			"byteLength": 1205256,
			"byteOffset": 35969360,
			"target": 34963
		},
		{
			"buffer": 0,
			"byteLength": 3614352,
			"byteOffset": 37174616,
			"target": 34962
		},
		{
			"buffer": 0,
			"byteLength": 3614352,
			"byteOffset": 40788968,
			"target": 34962
		},
		{
			"buffer": 0,
			"byteLength": 4819136,
			"byteOffset": 44403320,
			"target": 34962
		},
		{
			"buffer": 0,
			"byteLength": 2409568,
			"byteOffset": 49222456,
			"target": 34962
		},
		{
			"buffer": 0,
			"byteLength": 2409568,
			"byteOffset": 51632024,
			"target": 34962
		},
		{
			"buffer": 0,
			"byteLength": 1409628,
			"byteOffset": 54041592,
			"target": 34963
		},
		{
			"buffer": 0,
			"byteLength": 4227732,
			"byteOffset": 55451220,
			"target": 34962
		},
		{
			"buffer": 0,
			"byteLength": 4227732,
			"byteOffset": 59678952,
			"target": 34962
		},
		{
			"buffer": 0,
			"byteLength": 5636976,
			"byteOffset": 63906684,
			"target": 34962
		},
		{
			"buffer": 0,
			"byteLength": 2818488,
			"byteOffset": 69543660,
			"target": 34962
		},
		{
			"buffer": 0,
			"byteLength": 2818488,
			"byteOffset": 72362148,
			"target": 34962
		}
	],
	"images": [
		{
			"uri": "Model_4.jpg"
		},
		{
			"uri": "Model_3.jpg"
		},
		{
			"uri": "Model_2.jpg"
		},
		{
			"uri": "Model_1.jpg"
		},
		{
			"uri": "Model_0.jpg"
		}
	],
	"materials": [
		{
			"name": "_ncl1_4",
			"pbrMetallicRoughness":
			{
				"baseColorTexture":
				{
					"index": 0
				}
			},
			"extensions":
			{
				"KHR_materials_unlit":
				{
				}
			}
		},
		{
			"name": "_ncl1_3",
			"pbrMetallicRoughness":
			{
				"baseColorTexture":
				{
					"index": 1
				}
			},
			"extensions":
			{
				"KHR_materials_unlit":
				{
				}
			}
		},
		{
			"name": "_ncl1_2",
			"pbrMetallicRoughness":
			{
				"baseColorTexture":
				{
					"index": 2
				}
			},
			"extensions":
			{
				"KHR_materials_unlit":
				{
				}
			}
		},
		{
			"name": "_ncl1_1",
			"pbrMetallicRoughness":
			{
				"baseColorTexture":
				{
					"index": 3
				}
			},
			"extensions":
			{
				"KHR_materials_unlit":
				{
				}
			}
		},
		{
			"name": "UnnamedMaterial",
			"pbrMetallicRoughness":
			{
				"baseColorTexture":
				{
					"index": 4
				}
			},
			"extensions":
			{
				"KHR_materials_unlit":
				{
				}
			}
		}
	],
	"meshes": [
		{
			"name": "hokke_mafukan",
			"primitives": [
				{
					"attributes":
					{
						"POSITION": 1,
						"NORMAL": 2,
						"TANGENT": 3,
						"TEXCOORD_0": 4,
						"TEXCOORD_1": 5
					},
					"indices": 0,
					"material": 0
				},
				{
					"attributes":
					{
						"POSITION": 7,
						"NORMAL": 8,
						"TANGENT": 9,
						"TEXCOORD_0": 10,
						"TEXCOORD_1": 11
					},
					"indices": 6,
					"material": 1
				},
				{
					"attributes":
					{
						"POSITION": 13,
						"NORMAL": 14,
						"TANGENT": 15,
						"TEXCOORD_0": 16,
						"TEXCOORD_1": 17
					},
					"indices": 12,
					"material": 2
				},
				{
					"attributes":
					{
						"POSITION": 19,
						"NORMAL": 20,
						"TANGENT": 21,
						"TEXCOORD_0": 22,
						"TEXCOORD_1": 23
					},
					"indices": 18,
					"material": 3
				},
				{
					"attributes":
					{
						"POSITION": 25,
						"NORMAL": 26,
						"TANGENT": 27,
						"TEXCOORD_0": 28,
						"TEXCOORD_1": 29
					},
					"indices": 24,
					"material": 4
				}
			]
		}
	],
	"nodes": [
		{
			"mesh": 0
		}
	],
	"samplers": [
		{
			"name": "Model_4",
			"minFilter": 9987,
			"magFilter": 9729
		},
		{
			"name": "Model_3",
			"minFilter": 9987,
			"magFilter": 9729
		},
		{
			"name": "Model_2",
			"minFilter": 9987,
			"magFilter": 9729
		},
		{
			"name": "Model_1",
			"minFilter": 9987,
			"magFilter": 9729
		},
		{
			"name": "Model_0",
			"minFilter": 9987,
			"magFilter": 9729
		}
	],
	"scenes": [
		{
			"nodes": [ 0 ]
		}
	],
	"textures": [
		{
			"name": "Model_4",
			"sampler": 0,
			"source": 0
		},
		{
			"name": "Model_3",
			"sampler": 1,
			"source": 1
		},
		{
			"name": "Model_2",
			"sampler": 2,
			"source": 2
		},
		{
			"name": "Model_1",
			"sampler": 3,
			"source": 3
		},
		{
			"name": "Model_0",
			"sampler": 4,
			"source": 4
		}
	],
	"extensionsUsed": [
		"KHR_materials_unlit"
	]
}